<svg width="14" height="16" viewBox="0 0 14 16" fill="none" xmlns="http://www.w3.org/2000/svg">
<path d="M14 13.3953H0V11.907H0.7V6.72074C0.7 3.00874 3.521 0 7 0C10.479 0 13.3 3.00874 13.3 6.72074V11.907H14V13.3953ZM2.1 11.907H11.9V6.72074C11.9 3.83107 9.7062 1.48837 7 1.48837C4.2938 1.48837 2.1 3.83107 2.1 6.72074V11.907ZM5.25 14.1395H8.75C8.75 14.633 8.56563 15.1062 8.23744 15.4551C7.90925 15.804 7.46413 16 7 16C6.53587 16 6.09075 15.804 5.76256 15.4551C5.43437 15.1062 5.25 14.633 5.25 14.1395Z" fill="#5E6B92"/>
</svg>
