<svg width="199" height="161" viewBox="0 0 199 161" fill="none" xmlns="http://www.w3.org/2000/svg">
<g opacity="0.7">
<path opacity="0.1" fill-rule="evenodd" clip-rule="evenodd" d="M69.6859 154.731H75.8619C77.5489 154.731 78.9997 155.998 79.0782 157.645C79.162 159.403 77.7299 160.853 75.9498 160.853H53.6347C52.7698 160.853 52.0687 160.168 52.0687 159.323V141.72H53.4389C55.219 141.72 56.6521 140.269 56.5673 138.511C56.4879 136.865 55.0368 135.598 53.3504 135.598H25.6428C23.8629 135.598 22.4296 137.049 22.5144 138.807C22.5939 140.454 24.045 141.72 25.7313 141.72H27.0131V159.323C27.0131 160.168 26.3119 160.853 25.4471 160.853H3.13193C1.3518 160.853 -0.0802819 159.403 0.00349784 157.645C0.0819924 155.998 1.53287 154.731 3.21982 154.731H9.39583V79.7306C9.39583 78.0399 10.798 76.6694 12.5278 76.6694H15.0725V69.0163C15.0725 67.3256 16.4746 65.9551 18.2044 65.9551H39.9324C41.6622 65.9551 43.0643 67.3256 43.0643 69.0163V76.6694H66.554C68.2838 76.6694 69.6859 78.0399 69.6859 79.7306V154.731ZM29.605 130.566H33.2549C35.0466 130.566 36.4993 129.662 36.4993 128.547C36.4993 127.432 35.0466 126.528 33.2549 126.528H29.605C27.8133 126.528 26.3606 127.432 26.3606 128.547C26.3606 129.662 27.8133 130.566 29.605 130.566ZM33.2549 118.451H29.605C27.8133 118.451 26.3606 117.547 26.3606 116.432C26.3606 115.317 27.8133 114.413 29.605 114.413H33.2549C35.0466 114.413 36.4993 115.317 36.4993 116.432C36.4993 117.547 35.0466 118.451 33.2549 118.451ZM29.605 106.336H33.2549C35.0466 106.336 36.4993 105.432 36.4993 104.317C36.4993 103.202 35.0466 102.298 33.2549 102.298H29.605C27.8133 102.298 26.3606 103.202 26.3606 104.317C26.3606 105.432 27.8133 106.336 29.605 106.336ZM33.2549 94.2235H29.605C27.8133 94.2235 26.3606 93.3195 26.3606 92.2044C26.3606 91.0894 27.8133 90.1853 29.605 90.1853H33.2549C35.0466 90.1853 36.4993 91.0894 36.4993 92.2044C36.4993 93.3195 35.0466 94.2235 33.2549 94.2235ZM45.827 130.566H49.477C51.2689 130.566 52.7213 129.662 52.7213 128.547C52.7213 127.432 51.2689 126.528 49.477 126.528H45.827C44.0351 126.528 42.5827 127.432 42.5827 128.547C42.5827 129.662 44.0351 130.566 45.827 130.566ZM49.477 118.451H45.827C44.0351 118.451 42.5827 117.547 42.5827 116.432C42.5827 115.317 44.0351 114.413 45.827 114.413H49.477C51.2689 114.413 52.7213 115.317 52.7213 116.432C52.7213 117.547 51.2689 118.451 49.477 118.451ZM45.827 106.336H49.477C51.2689 106.336 52.7213 105.432 52.7213 104.317C52.7213 103.202 51.2689 102.298 49.477 102.298H45.827C44.0351 102.298 42.5827 103.202 42.5827 104.317C42.5827 105.432 44.0351 106.336 45.827 106.336ZM49.477 94.2235H45.827C44.0351 94.2235 42.5827 93.3195 42.5827 92.2044C42.5827 91.0894 44.0351 90.1853 45.827 90.1853H49.477C51.2689 90.1853 52.7213 91.0894 52.7213 92.2044C52.7213 93.3195 51.2689 94.2235 49.477 94.2235ZM32.4436 144.135V159.399C32.4436 160.202 33.1245 160.853 33.9644 160.853H43.0892C43.9291 160.853 44.61 160.202 44.61 159.399V144.135C44.61 143.332 43.9291 142.681 43.0892 142.681H33.9644C33.1245 142.681 32.4436 143.332 32.4436 144.135Z" fill="white"/>
<path opacity="0.1" fill-rule="evenodd" clip-rule="evenodd" d="M183.08 150.57H193.253C196.031 150.57 198.421 152.721 198.55 155.514C198.688 158.496 196.329 160.955 193.397 160.955H156.643C155.219 160.955 154.064 159.792 154.064 158.359V128.504H156.32C159.252 128.504 161.613 126.042 161.473 123.061C161.342 120.268 158.952 118.12 156.175 118.12H110.539C107.607 118.12 105.246 120.582 105.386 123.563C105.517 126.356 107.907 128.504 110.684 128.504H112.796V158.359C112.796 159.792 111.641 160.955 110.216 160.955H73.4619C70.53 160.955 68.1712 158.496 68.3092 155.514C68.4385 152.721 70.8282 150.57 73.6067 150.57H83.779V23.3644C83.779 20.4967 86.0884 18.1723 88.9375 18.1723H93.1288V5.19208C93.1288 2.32443 95.4382 0 98.2873 0H134.074C136.924 0 139.233 2.32443 139.233 5.19208V18.1723H177.922C180.771 18.1723 183.08 20.4967 183.08 23.3644V150.57ZM118.882 108.645H123.932C126.41 108.645 128.42 106.843 128.42 104.621C128.42 102.399 126.41 100.597 123.932 100.597H118.882C116.403 100.597 114.393 102.399 114.393 104.621C114.393 106.843 116.403 108.645 118.882 108.645ZM123.932 90.5373H118.882C116.403 90.5373 114.393 88.7356 114.393 86.5134C114.393 84.2912 116.403 82.4895 118.882 82.4895H123.932C126.41 82.4895 128.42 84.2912 128.42 86.5134C128.42 88.7356 126.41 90.5373 123.932 90.5373ZM118.882 68.406H123.932C126.41 68.406 128.42 66.6043 128.42 64.3821C128.42 62.1599 126.41 60.3582 123.932 60.3582H118.882C116.403 60.3582 114.393 62.1599 114.393 64.3821C114.393 66.6043 116.403 68.406 118.882 68.406ZM123.932 48.2866H118.882C116.403 48.2866 114.393 46.4849 114.393 44.2627C114.393 42.0405 116.403 40.2389 118.882 40.2389H123.932C126.41 40.2389 128.42 42.0405 128.42 44.2627C128.42 46.4849 126.41 48.2866 123.932 48.2866ZM142.928 108.645H147.978C150.457 108.645 152.466 106.843 152.466 104.621C152.466 102.399 150.457 100.597 147.978 100.597H142.928C140.449 100.597 138.439 102.399 138.439 104.621C138.439 106.843 140.449 108.645 142.928 108.645ZM147.978 90.5373H142.928C140.449 90.5373 138.439 88.7356 138.439 86.5134C138.439 84.2912 140.449 82.4895 142.928 82.4895H147.978C150.457 82.4895 152.466 84.2912 152.466 86.5134C152.466 88.7356 150.457 90.5373 147.978 90.5373ZM142.928 68.406H147.978C150.457 68.406 152.466 66.6043 152.466 64.3821C152.466 62.1599 150.457 60.3582 147.978 60.3582H142.928C140.449 60.3582 138.439 62.1599 138.439 64.3821C138.439 66.6043 140.449 68.406 142.928 68.406ZM147.978 48.2866H142.928C140.449 48.2866 138.439 46.4849 138.439 44.2627C138.439 42.0405 140.449 40.2389 142.928 40.2389H147.978C150.457 40.2389 152.466 42.0405 152.466 44.2627C152.466 46.4849 150.457 48.2866 147.978 48.2866ZM122.408 131.338V158.379C122.408 159.801 123.53 160.954 124.913 160.954H139.942C141.325 160.954 142.447 159.801 142.447 158.379V131.338C142.447 129.916 141.325 128.763 139.942 128.763H124.913C123.53 128.763 122.408 129.916 122.408 131.338Z" fill="white"/>
</g>
</svg>
