<svg width="16" height="16" viewBox="0 0 16 16" fill="none" xmlns="http://www.w3.org/2000/svg">
<path d="M7.8002 0.407959C3.72397 0.407959 0.408203 3.72371 0.408203 7.79996C0.408203 11.8762 3.72397 15.192 7.8002 15.192C11.8764 15.192 15.1922 11.8762 15.1922 7.79996C15.1922 3.72371 11.8764 0.407959 7.8002 0.407959ZM7.2722 1.59596V3.75196H5.6662C5.7431 3.55036 5.82129 3.35286 5.9082 3.17446C6.31463 2.34022 6.79671 1.82056 7.2722 1.59596ZM8.3282 1.59596C8.8037 1.82056 9.28578 2.34022 9.6922 3.17446C9.77912 3.35286 9.8573 3.55036 9.9342 3.75196H8.3282V1.59596ZM5.4132 1.93146C5.25024 2.17277 5.09809 2.43355 4.9622 2.71246C4.80566 3.03379 4.66812 3.3826 4.5442 3.75196H2.9272C3.58876 2.95592 4.43832 2.32687 5.4132 1.93146ZM10.1872 1.93146C11.1621 2.32687 12.0116 2.95592 12.6732 3.75196H11.0562C10.9323 3.3826 10.7948 3.03379 10.6382 2.71246C10.5023 2.43355 10.3502 2.17277 10.1872 1.93146ZM2.2122 4.80796H4.2472C4.0752 5.57094 3.97015 6.4013 3.9392 7.27196H1.4862C1.55913 6.38538 1.81317 5.5526 2.2122 4.80796ZM5.3362 4.80796H7.2722V7.27196H4.9952C5.02996 6.38589 5.15133 5.55251 5.3362 4.80796ZM8.3282 4.80796H10.2642C10.4491 5.55251 10.5704 6.38589 10.6052 7.27196H8.3282V4.80796ZM11.3532 4.80796H13.3882C13.7872 5.5526 14.0413 6.38538 14.1142 7.27196H11.6612C11.6303 6.4013 11.5252 5.57094 11.3532 4.80796ZM1.4862 8.32796H3.9392C3.9699 9.2002 4.07484 10.0286 4.2472 10.792H2.2122C1.81403 10.0477 1.55878 9.2138 1.4862 8.32796ZM4.9952 8.32796H7.2722V10.792H5.3362C5.15176 10.0488 5.02967 9.2131 4.9952 8.32796ZM8.3282 8.32796H10.6052C10.5707 9.2131 10.4486 10.0488 10.2642 10.792H8.3282V8.32796ZM11.6612 8.32796H14.1142C14.0416 9.2138 13.7864 10.0477 13.3882 10.792H11.3532C11.5256 10.0286 11.6305 9.2002 11.6612 8.32796ZM2.9217 11.848H4.5442C4.66805 12.2165 4.80577 12.5609 4.9622 12.882C5.09974 13.1643 5.25344 13.4299 5.4187 13.674C4.43949 13.2777 3.585 12.648 2.9217 11.848ZM5.6662 11.848H7.2722V14.0095C6.79671 13.7833 6.31463 13.2542 5.9082 12.42C5.82129 12.2415 5.7431 12.0493 5.6662 11.848ZM8.3282 11.848H9.9342C9.8573 12.0493 9.77912 12.2415 9.6922 12.42C9.28578 13.2542 8.8037 13.7833 8.3282 14.0095V11.848ZM11.0562 11.848H12.6787C12.0154 12.648 11.1609 13.2777 10.1817 13.674C10.347 13.4299 10.5007 13.1643 10.6382 12.882C10.7946 12.5609 10.9324 12.2165 11.0562 11.848Z" fill="#5E6B92"/>
</svg>
