<svg width="67" height="76" xmlns="http://www.w3.org/2000/svg" xmlns:xlink="http://www.w3.org/1999/xlink"><defs><linearGradient x1="50%" y1="100%" x2="50%" y2="-17.545%" id="a"><stop stop-color="#0169E1" offset="0%"/><stop stop-color="#0F8EF1" offset="100%"/></linearGradient><path d="M35.447.97l28.015 16.167a4.955 4.955 0 0 1 2.479 4.291v32.33a4.955 4.955 0 0 1-2.479 4.292L35.49 74.193a4.955 4.955 0 0 1-5.017-.037L4.735 58.791a2.477 2.477 0 0 1 .039-4.277L32.472 38.64a.991.991 0 0 0 .498-.86V21.77a.991.991 0 0 0-1.487-.858L3.717 36.964A2.477 2.477 0 0 1 0 34.82V21.43c0-1.771.945-3.407 2.478-4.292L30.494.969a4.955 4.955 0 0 1 4.953 0z" id="b"/><path d="M35.447.97l28.015 16.167a4.955 4.955 0 0 1 2.479 4.291v32.33a4.955 4.955 0 0 1-2.479 4.292L35.49 74.193a4.955 4.955 0 0 1-5.017-.037l-25.01-14.93a2.973 2.973 0 0 1 .045-5.133l24.971-14.31a4.955 4.955 0 0 0 2.491-4.3V23.488a1.982 1.982 0 0 0-2.974-1.716L3.717 36.964A2.477 2.477 0 0 1 0 34.82V21.43c0-1.771.945-3.407 2.478-4.292L30.494.969a4.955 4.955 0 0 1 4.953 0z" id="c"/><path d="M34.456.398l29.998 17.31a2.973 2.973 0 0 1 1.487 2.576v34.62a2.973 2.973 0 0 1-1.487 2.574L34.482 74.775a2.973 2.973 0 0 1-3.01-.023L4.735 58.791a2.477 2.477 0 0 1 .039-4.277L30.728 39.64a4.46 4.46 0 0 0 2.242-3.869V23.488a1.982 1.982 0 0 0-2.974-1.716L3.717 36.964A2.477 2.477 0 0 1 0 34.82V20.284c0-1.063.567-2.044 1.487-2.575L31.484.398a2.971 2.971 0 0 1 2.972 0z" id="d"/></defs><g transform="translate(.985 .42)" fill="none" fill-rule="evenodd"><use fill="url(#a)" fill-rule="nonzero" xlink:href="#b"/><use fill="url(#a)" fill-rule="nonzero" xlink:href="#c"/><mask id="e" fill="#fff"><use xlink:href="#d"/></mask><use fill="#5670FB" xlink:href="#d"/><path d="M64.619 55.283L31.905 37.46.981 56.543l32.488 19.559 31.189-18.23a1.486 1.486 0 0 0-.04-2.59z" fill="#3655FF" mask="url(#e)"/><path d="M30.003 1.284L-.524 18.851l.029 22.268 32.56-13.76c.55-.233.908-.772.908-1.37V3.002a1.982 1.982 0 0 0-2.97-1.718z" fill="#3C59F3" mask="url(#e)"/></g></svg>